<svg xmlns="http://www.w3.org/2000/svg" width="256" height="256" viewBox="0 0 256 256">
  <defs>
    <linearGradient id="g" x1="0%" y1="0%" x2="100%" y2="100%">
      <stop offset="0%" stop-color="#E50914"/>
      <stop offset="100%" stop-color="#FF6B6B"/>
    </linearGradient>
  </defs>
  <rect width="256" height="256" rx="48" fill="#121212"/>
  <circle cx="128" cy="128" r="92" fill="url(#g)" opacity="0.15"/>
  <path d="M64 168c10-28 32-44 64-44 18 0 28-6 28-18 0-12-10-18-28-18-18 0-33 6-46 18l-18-22c18-18 42-28 70-28 38 0 62 16 62 48 0 30-20 48-62 48-20 0-36 6-42 16h108v28H64v-28z" fill="url(#g)"/>
  <text x="128" y="226" text-anchor="middle" font-family="Poppins, Arial, sans-serif" font-weight="700" font-size="28" fill="#E5E5E5">S</text>
</svg>

